<?xml version="1.0" encoding="utf-8"?>
<!-- Generator: Adobe Illustrator 19.1.0, SVG Export Plug-In . SVG Version: 6.00 Build 0)  -->
<svg version="1.1" id="Layer_1" xmlns="http://www.w3.org/2000/svg" xmlns:xlink="http://www.w3.org/1999/xlink" x="0px" y="0px"
	 viewBox="-85 214.5 328.8 73.5" style="enable-background:new -85 214.5 328.8 73.5;" xml:space="preserve">
<style type="text/css">
	.st0{enable-background:new    ;}
	.st1{fill:#FFFFFF;}
</style>
<g class="st0">
	<path class="st1" d="M-77.4,279h33.7v1.3h-33.7V279z"/>
	<path class="st1" d="M-19.8,224.9c1.9,0,3.7,0.2,5.3,0.7c1.6,0.5,3.1,1.2,4.3,2.3c1.2,1,2.2,2.3,2.9,3.7c0.7,1.5,1,3.2,1,5.3
		c0,1.4-0.3,2.8-0.8,4.1c-0.5,1.3-1.2,2.5-2.1,3.4c-0.9,1-2,1.8-3.2,2.4c-1.2,0.6-2.6,1-4.1,1v0.1c1.6,0,3.1,0.3,4.5,0.9
		s2.7,1.3,3.7,2.4c1.1,1,1.9,2.2,2.5,3.7c0.6,1.5,0.9,3.1,0.9,5c0,2.2-0.4,4.1-1.2,5.7c-0.8,1.6-1.9,3-3.3,4.1
		c-1.4,1.1-3.1,1.9-5,2.5c-2,0.6-4.1,0.8-6.4,0.8h-19.9v-48.2H-19.8z M-19.8,247.3c1.6,0,3.2-0.2,4.6-0.6c1.5-0.4,2.8-1.1,3.9-2
		c1.1-0.9,2-2,2.7-3.3s1-2.8,1-4.5c0-1.8-0.3-3.4-0.9-4.8c-0.6-1.3-1.5-2.4-2.6-3.3c-1.1-0.9-2.4-1.5-3.9-2
		c-1.5-0.4-3.1-0.6-4.8-0.6h-19.4v21.1H-19.8z M-20,271.7c2,0,3.8-0.2,5.5-0.7c1.7-0.5,3.1-1.2,4.4-2.2c1.2-1,2.2-2.2,2.9-3.6
		c0.7-1.5,1.1-3.2,1.1-5.2c0-2.1-0.4-3.9-1.2-5.3c-0.8-1.4-1.8-2.6-3.1-3.5c-1.3-0.9-2.7-1.6-4.4-2c-1.6-0.4-3.3-0.6-5-0.6h-19.4
		v23.1H-20z"/>
	<path class="st1" d="M2.5,224.9v48.2H1.2v-48.2H2.5z"/>
	<path class="st1" d="M8.3,249c0-3.4,0.5-6.7,1.5-9.7c1-3.1,2.4-5.7,4.3-8c1.9-2.3,4.2-4.1,7-5.5s5.9-2,9.5-2c3.6,0,6.8,0.7,9.5,2
		s5.1,3.2,7,5.5c1.9,2.3,3.3,5,4.3,8c1,3.1,1.5,6.3,1.5,9.7c0,3.4-0.5,6.7-1.5,9.7c-1,3.1-2.4,5.7-4.3,8c-1.9,2.3-4.2,4.1-7,5.4
		s-5.9,2-9.5,2c-3.6,0-6.8-0.7-9.5-2s-5.1-3.1-7-5.4c-1.9-2.3-3.3-5-4.3-8C8.8,255.6,8.3,252.4,8.3,249z M9.7,249
		c0,3.5,0.6,6.7,1.5,9.6c1,2.9,2.3,5.4,4.1,7.6c1.8,2.1,3.9,3.8,6.5,5c2.6,1.2,5.5,1.8,8.7,1.8s6.1-0.6,8.7-1.8
		c2.6-1.2,4.7-2.8,6.5-5c1.8-2.1,3.1-4.6,4.1-7.6c1-2.9,1.5-6.1,1.5-9.6c0-3.5-0.6-6.7-1.5-9.6c-1-2.9-2.3-5.4-4.1-7.6
		c-1.8-2.1-3.9-3.8-6.5-5c-2.6-1.2-5.5-1.8-8.7-1.8s-6.1,0.6-8.7,1.8c-2.6,1.2-4.7,2.8-6.5,5c-1.8,2.1-3.1,4.6-4.1,7.6
		C10.2,242.3,9.7,245.5,9.7,249z"/>
	<path class="st1" d="M85.5,247.3v1.3H59.8v24.4h-1.3v-48.2h29.7v1.3H59.8v21.1H85.5z"/>
	<path class="st1" d="M126.3,224.9v30.2c0,6.5-1.5,11.3-4.5,14.4c-3,3.1-7.4,4.7-13.2,4.7c-5.8,0-10.1-1.6-13.2-4.7
		c-3-3.1-4.5-7.9-4.5-14.4v-30.2h1.3v30.2c0,5.8,1.3,10.2,4,13.2c2.7,3,6.8,4.5,12.3,4.5s9.7-1.5,12.3-4.5c2.7-3,4-7.4,4-13.2v-30.2
		H126.3z"/>
	<path class="st1" d="M165.8,271.7v1.3h-32.3v-48.2h32v1.3h-30.6v21.1h28.8v1.3h-28.8v23.1H165.8z"/>
	<path class="st1" d="M199.3,273.1h-29.5v-48.2h1.3v46.8h28.1V273.1z"/>
	<path class="st1" d="M233.1,232.1c-0.8-1.7-1.9-3.1-3.3-4.1c-1.4-1.1-3-1.8-4.9-2.3c-1.9-0.4-3.9-0.7-6.1-0.7
		c-1.7,0-3.4,0.2-5.2,0.5c-1.8,0.3-3.4,0.9-4.9,1.8c-1.5,0.9-2.7,2-3.6,3.4c-0.9,1.4-1.4,3.2-1.4,5.4s0.5,3.9,1.5,5.2
		c1,1.3,2.2,2.4,3.8,3.2c1.6,0.8,3.3,1.4,5.3,1.9c2,0.5,4,0.9,6.1,1.4c2.2,0.6,4.4,1.1,6.4,1.7c2,0.5,3.7,1.3,5.2,2.2
		c1.5,0.9,2.7,2.1,3.5,3.6c0.9,1.5,1.3,3.5,1.3,6c0,2.3-0.5,4.3-1.5,5.9c-1,1.6-2.3,3-3.9,4c-1.6,1.1-3.4,1.8-5.5,2.3
		s-4.1,0.7-6.1,0.7c-2.7,0-5.3-0.3-7.6-0.9c-2.3-0.6-4.3-1.6-6-3c-1.7-1.4-3-3.1-3.9-5.3c-0.9-2.2-1.4-4.8-1.3-7.8h1.3
		c0,2.9,0.4,5.3,1.3,7.3c0.9,2,2.1,3.6,3.6,4.9s3.4,2.2,5.5,2.7c2.1,0.6,4.5,0.8,7.1,0.8c1.9,0,3.8-0.2,5.6-0.6
		c1.9-0.4,3.5-1.1,5-2.1c1.5-0.9,2.7-2.2,3.6-3.6c0.9-1.5,1.4-3.3,1.4-5.3c0-2.4-0.5-4.4-1.6-5.8c-1.1-1.4-2.4-2.5-4-3.4
		c-1.6-0.8-3.5-1.5-5.5-1.9s-3.9-0.9-5.8-1.3c-1.9-0.4-3.9-0.9-5.8-1.4c-1.9-0.5-3.7-1.2-5.2-2.1c-1.6-0.9-2.8-2-3.7-3.5
		c-0.9-1.5-1.4-3.4-1.4-5.7c0-2.4,0.5-4.4,1.5-6c1-1.6,2.3-2.9,3.8-3.8c1.6-0.9,3.3-1.6,5.3-2s3.9-0.6,5.8-0.6
		c2.4,0,4.6,0.3,6.6,0.8c2,0.5,3.8,1.3,5.3,2.5c1.5,1.1,2.7,2.7,3.6,4.5c0.9,1.9,1.4,4.1,1.6,6.8h-1.3
		C234.4,235.9,233.9,233.8,233.1,232.1z"/>
</g>
</svg>
